<svg width="22.000000" height="22.000000" viewBox="0 0 22 22" fill="none" xmlns="http://www.w3.org/2000/svg" xmlns:xlink="http://www.w3.org/1999/xlink">
	<desc>
			Created with Pixso.
	</desc>
	<defs/>
	<circle id="Ellipse" cx="11.000000" cy="11.000000" r="10.000000" stroke="#FFFFFF" stroke-opacity="1.000000" stroke-width="2.000000"/>
	<path id="i" d="M10.24 7.83Q10.55 8.03 10.99 8.03Q11.41 8.03 11.72 7.83Q11.81 7.77 11.9 7.7Q12.05 7.55 12.14 7.37Q12.25 7.14 12.25 6.86Q12.25 6.62 12.16 6.43Q12.07 6.23 11.9 6.08Q11.83 6.02 11.76 5.97Q11.44 5.76 10.99 5.76Q10.56 5.76 10.25 5.96Q10.16 6.01 10.08 6.09Q9.91 6.24 9.82 6.44Q9.73 6.64 9.73 6.9Q9.73 7.14 9.82 7.34Q9.9 7.54 10.08 7.7Q10.15 7.77 10.24 7.83ZM12 9L9.97 9L9.97 16L12 16L12 9Z" fill="#FFFFFF" fill-opacity="1.000000" fill-rule="evenodd"/>
</svg>
