<svg width="40.000000" height="58.000000" viewBox="0 0 40 58" fill="none" xmlns="http://www.w3.org/2000/svg" xmlns:xlink="http://www.w3.org/1999/xlink">
	<desc>
			Created with Pixso.
	</desc>
	<defs>
		<filter id="filter_1_54_dd" x="-0.501526" y="0.000000" width="40.051575" height="58.000000" filterUnits="userSpaceOnUse" color-interpolation-filters="sRGB">
			<feFlood flood-opacity="0" result="BackgroundImageFix"/>
			<feColorMatrix in="SourceAlpha" type="matrix" values="0 0 0 0 0 0 0 0 0 0 0 0 0 0 0 0 0 0 127 0" result="hardAlpha"/>
			<feOffset dx="0" dy="4"/>
			<feGaussianBlur stdDeviation="1.33333"/>
			<feComposite in2="hardAlpha" operator="out" k2="-1" k3="1"/>
			<feColorMatrix type="matrix" values="0 0 0 0 0 0 0 0 0 0 0 0 0 0 0 0 0 0 0.25 0"/>
			<feBlend mode="normal" in2="BackgroundImageFix" result="effect_dropShadow_1"/>
			<feBlend mode="normal" in="SourceGraphic" in2="effect_dropShadow_1" result="shape"/>
		</filter>
	</defs>
	<g filter="url(#filter_1_54_dd)">
		<path id="Vector (Stroke)" d="M20.31 15.5C21 16.43 22.24 17.12 24.29 16.84C27.89 16.36 30.68 17.44 32.35 19.51C33.98 21.53 34.36 24.26 33.66 26.71C32.95 29.18 31.12 31.44 28.25 32.58C25.39 33.71 21.66 33.65 17.21 31.87C13.34 30.31 11.12 30.57 9.92 31.27C8.76 31.95 8.07 33.36 8 35.35C7.93 37.32 8.49 39.57 9.45 41.38C10.45 43.27 11.67 44.32 12.69 44.52L12.1 47.47C9.76 47 7.95 44.96 6.8 42.79C5.62 40.56 4.91 37.79 5 35.24C5.09 32.71 6 30.08 8.41 28.68C10.79 27.29 14.11 27.39 18.33 29.08C22.28 30.67 25.18 30.57 27.15 29.79C29.11 29.01 30.31 27.5 30.77 25.88C31.25 24.23 30.95 22.55 30.02 21.4C29.13 20.3 27.47 19.44 24.69 19.82C21.7 20.22 19.33 19.21 17.9 17.3C16.52 15.45 16.19 12.97 16.73 10.65C17.28 8.31 18.73 6.01 21.12 4.45C23.51 2.89 26.74 2.12 30.74 2.67L30.33 5.64C26.94 5.18 24.46 5.85 22.76 6.96C21.05 8.08 20.03 9.71 19.65 11.33C19.27 12.98 19.56 14.5 20.31 15.5Z" fill="#000000" fill-opacity="1.000000" fill-rule="evenodd"/>
		<path id="Vector (Stroke)" d="M20.31 15.5C19.56 14.5 19.27 12.98 19.65 11.33C20.03 9.71 21.05 8.08 22.76 6.96C24.46 5.85 26.94 5.18 30.33 5.64L30.74 2.67C26.74 2.12 23.51 2.89 21.12 4.45C18.73 6.01 17.28 8.31 16.73 10.65C16.19 12.97 16.52 15.45 17.9 17.3C19.33 19.21 21.7 20.22 24.69 19.82C27.47 19.44 29.13 20.3 30.02 21.4C30.95 22.55 31.25 24.23 30.77 25.88C30.31 27.5 29.11 29.01 27.15 29.79C25.18 30.57 22.28 30.67 18.33 29.08C14.11 27.39 10.79 27.29 8.41 28.68C6 30.08 5.09 32.71 5 35.24C4.91 37.79 5.62 40.56 6.8 42.79C7.95 44.96 9.76 47 12.1 47.47L12.69 44.52C11.67 44.32 10.45 43.27 9.45 41.38C8.49 39.57 7.93 37.32 8 35.35C8.07 33.36 8.76 31.95 9.92 31.27C11.12 30.57 13.34 30.31 17.21 31.87C21.66 33.65 25.39 33.71 28.25 32.58C31.12 31.44 32.95 29.18 33.66 26.71C34.36 24.26 33.98 21.53 32.35 19.51C30.68 17.44 27.89 16.36 24.29 16.84C22.24 17.12 21 16.43 20.31 15.5Z" stroke="#000000" stroke-opacity="1.000000" stroke-width="3.000000"/>
		<path id="Vector (Stroke)" d="M30.51 4.36C30.05 4.29 29.6 4.25 29.17 4.22L29.19 3.82C29.64 3.85 30.09 3.9 30.56 3.96L30.51 4.36ZM26.48 4.3C25.53 4.42 24.67 4.64 23.89 4.94L23.75 4.57C24.56 4.26 25.45 4.03 26.43 3.91L26.48 4.3ZM21.56 6.22C20.82 6.77 20.2 7.42 19.71 8.11L19.38 7.88C19.9 7.15 20.55 6.48 21.32 5.9L21.56 6.22ZM18.53 10.49C18.26 11.36 18.15 12.26 18.19 13.1L17.79 13.12C17.75 12.23 17.87 11.29 18.15 10.37L18.53 10.49ZM18.86 15.63C19.27 16.41 19.86 17.05 20.63 17.51L20.43 17.85C19.59 17.36 18.94 16.65 18.5 15.82L18.86 15.63ZM24.46 18.13C25.01 18.06 25.53 18.02 26.03 18.03L26.02 18.43C25.55 18.42 25.05 18.46 24.52 18.53C24.02 18.59 23.56 18.61 23.11 18.6L23.13 18.2C23.55 18.21 23.99 18.19 24.46 18.13ZM29.08 18.63C30.12 19.08 30.94 19.76 31.53 20.57L31.21 20.81C30.66 20.05 29.9 19.42 28.92 19L29.08 18.63ZM32.65 23.5C32.77 24.52 32.66 25.58 32.33 26.6L31.95 26.48C32.26 25.51 32.36 24.5 32.25 23.54L32.65 23.5ZM13.69 29.52C12.64 29.37 11.73 29.39 10.94 29.53L10.87 29.14C11.7 28.98 12.66 28.97 13.74 29.12L13.69 29.52ZM30.77 29.31C30.1 30.05 29.27 30.69 28.26 31.16L28.09 30.8C29.05 30.35 29.84 29.74 30.47 29.04L30.77 29.31ZM17.7 30.66C17.24 30.48 16.8 30.32 16.38 30.18L16.51 29.8C16.94 29.94 17.38 30.1 17.84 30.29C18.33 30.49 18.81 30.66 19.27 30.81L19.15 31.19C18.68 31.04 18.19 30.86 17.7 30.66ZM8.53 30.68C7.87 31.27 7.4 32.05 7.1 32.95L6.72 32.82C7.04 31.87 7.54 31.03 8.27 30.38L8.53 30.68ZM25.26 31.97C24.31 32.08 23.28 32.06 22.16 31.9L22.21 31.5C23.3 31.66 24.31 31.67 25.22 31.58L25.26 31.97ZM6.7 35.65C6.69 36.55 6.8 37.48 7 38.4L6.61 38.49C6.4 37.54 6.29 36.58 6.3 35.65L6.7 35.65ZM7.85 41.04C8.23 41.93 8.69 42.74 9.22 43.44L8.89 43.68C8.35 42.95 7.87 42.11 7.48 41.2L7.85 41.04ZM11.19 45.31C11.6 45.55 12.01 45.71 12.43 45.8L12.36 46.19C11.88 46.1 11.43 45.91 10.99 45.65L11.19 45.31Z" fill="#FFFFFF" fill-opacity="1.000000" fill-rule="evenodd"/>
		<path id="Vector (Stroke)" d="M30.51 4.36L30.56 3.96C30.09 3.9 29.64 3.85 29.19 3.82L29.17 4.22C29.6 4.25 30.05 4.29 30.51 4.36ZM26.48 4.3L26.43 3.91C25.45 4.03 24.56 4.26 23.75 4.57L23.89 4.94C24.67 4.64 25.53 4.42 26.48 4.3ZM21.56 6.22L21.32 5.9C20.55 6.48 19.9 7.15 19.38 7.88L19.71 8.11C20.2 7.42 20.82 6.77 21.56 6.22ZM18.53 10.49L18.15 10.37C17.87 11.29 17.75 12.23 17.79 13.12L18.19 13.1C18.15 12.26 18.26 11.36 18.53 10.49ZM18.86 15.63L18.5 15.82C18.94 16.65 19.59 17.36 20.43 17.85L20.63 17.51C19.86 17.05 19.27 16.41 18.86 15.63ZM24.46 18.13C23.99 18.19 23.55 18.21 23.13 18.2L23.11 18.6C23.56 18.61 24.02 18.59 24.52 18.53C25.05 18.46 25.55 18.42 26.02 18.43L26.03 18.03C25.53 18.02 25.01 18.06 24.46 18.13ZM29.08 18.63L28.92 19C29.9 19.42 30.66 20.05 31.21 20.81L31.53 20.57C30.94 19.76 30.12 19.08 29.08 18.63ZM32.65 23.5L32.25 23.54C32.36 24.5 32.26 25.51 31.95 26.48L32.33 26.6C32.66 25.58 32.77 24.52 32.65 23.5ZM13.69 29.52L13.74 29.12C12.66 28.97 11.7 28.98 10.87 29.14L10.94 29.53C11.73 29.39 12.64 29.37 13.69 29.52ZM30.77 29.31L30.47 29.04C29.84 29.74 29.05 30.35 28.09 30.8L28.26 31.16C29.27 30.69 30.1 30.05 30.77 29.31ZM17.7 30.66C18.19 30.86 18.68 31.04 19.15 31.19L19.27 30.81C18.81 30.66 18.33 30.49 17.84 30.29C17.38 30.1 16.94 29.94 16.51 29.8L16.38 30.18C16.8 30.32 17.24 30.48 17.7 30.66ZM8.53 30.68L8.27 30.38C7.54 31.03 7.04 31.87 6.72 32.82L7.1 32.95C7.4 32.05 7.87 31.27 8.53 30.68ZM25.26 31.97L25.22 31.58C24.31 31.67 23.3 31.66 22.21 31.5L22.16 31.9C23.28 32.06 24.31 32.08 25.26 31.97ZM6.7 35.65L6.3 35.65C6.29 36.58 6.4 37.54 6.61 38.49L7 38.4C6.8 37.48 6.69 36.55 6.7 35.65ZM7.85 41.04L7.48 41.2C7.87 42.11 8.35 42.95 8.89 43.68L9.22 43.44C8.69 42.74 8.23 41.93 7.85 41.04ZM11.19 45.31L10.99 45.65C11.43 45.91 11.88 46.1 12.36 46.19L12.43 45.8C12.01 45.71 11.6 45.55 11.19 45.31Z" stroke="#000000" stroke-opacity="1.000000" stroke-width="0.400000" stroke-dasharray="3 3"/>
		<path id="Ellipse" d="M16.5 46.5C16.5 48.43 14.93 50 13 50C11.06 50 9.5 48.43 9.5 46.5C9.5 44.56 11.06 43 13 43C14.93 43 16.5 44.56 16.5 46.5Z" fill="#C4C4C4" fill-opacity="1.000000" fill-rule="nonzero"/>
		<path id="Ellipse" d="M13 50C14.93 50 16.5 48.43 16.5 46.5C16.5 44.56 14.93 43 13 43C11.06 43 9.5 44.56 9.5 46.5C9.5 48.43 11.06 50 13 50ZM13.57 48.93Q13.29 49 13 49Q12.7 49 12.42 48.93Q12.22 48.88 12.02 48.8Q11.82 48.71 11.63 48.59Q11.42 48.45 11.23 48.26Q11.04 48.07 10.9 47.86Q10.78 47.67 10.69 47.47Q10.61 47.27 10.56 47.07Q10.5 46.79 10.5 46.5Q10.5 46.2 10.56 45.92Q10.61 45.72 10.69 45.52Q10.78 45.32 10.9 45.13Q11.04 44.92 11.23 44.73Q11.42 44.54 11.63 44.4Q11.82 44.28 12.02 44.19Q12.22 44.11 12.42 44.06Q12.7 44 13 44Q13.29 44 13.57 44.06Q13.77 44.11 13.97 44.19Q14.17 44.28 14.36 44.4Q14.57 44.54 14.76 44.73Q14.95 44.92 15.09 45.13Q15.21 45.32 15.3 45.52Q15.38 45.72 15.43 45.92Q15.5 46.2 15.5 46.5Q15.5 46.79 15.43 47.07Q15.38 47.27 15.3 47.47Q15.21 47.67 15.09 47.86Q14.95 48.07 14.76 48.26Q14.57 48.45 14.36 48.59Q14.17 48.71 13.97 48.8Q13.77 48.88 13.57 48.93Z" fill="#000000" fill-opacity="1.000000" fill-rule="evenodd"/>
		<path id="Ellipse" d="M14.5 46.5C14.5 47.32 13.82 48 13 48C12.17 48 11.5 47.32 11.5 46.5C11.5 45.67 12.17 45 13 45C13.82 45 14.5 45.67 14.5 46.5Z" fill="#FFFFFF" fill-opacity="1.000000" fill-rule="nonzero"/>
		<path id="Ellipse" d="M13 48C13.82 48 14.5 47.32 14.5 46.5C14.5 45.67 13.82 45 13 45C12.17 45 11.5 45.67 11.5 46.5C11.5 47.32 12.17 48 13 48ZM13.19 46.96Q13.1 47 13 47Q12.89 47 12.8 46.96Q12.71 46.92 12.64 46.85Q12.57 46.78 12.53 46.69Q12.5 46.6 12.5 46.5Q12.5 46.39 12.53 46.3Q12.57 46.21 12.64 46.14Q12.71 46.07 12.8 46.03Q12.89 46 13 46Q13.1 46 13.19 46.03Q13.28 46.07 13.35 46.14Q13.42 46.21 13.46 46.3Q13.5 46.39 13.5 46.5Q13.5 46.6 13.46 46.69Q13.42 46.78 13.35 46.85Q13.28 46.92 13.19 46.96Z" fill="#000000" fill-opacity="1.000000" fill-rule="evenodd"/>
		<path id="Ellipse" d="M35.5 3.5C35.5 5.43 33.93 7 32 7C30.06 7 28.5 5.43 28.5 3.5C28.5 1.56 30.06 0 32 0C33.93 0 35.5 1.56 35.5 3.5Z" fill="#C4C4C4" fill-opacity="1.000000" fill-rule="nonzero"/>
		<path id="Ellipse" d="M32 7C33.93 7 35.5 5.43 35.5 3.5C35.5 1.56 33.93 0 32 0C30.06 0 28.5 1.56 28.5 3.5C28.5 5.43 30.06 7 32 7ZM32.57 5.93Q32.29 6 32 6Q31.7 6 31.42 5.93Q31.22 5.88 31.02 5.8Q30.82 5.71 30.63 5.59Q30.42 5.45 30.23 5.26Q30.04 5.07 29.9 4.86Q29.78 4.67 29.69 4.47Q29.61 4.27 29.56 4.07Q29.5 3.79 29.5 3.5Q29.5 3.2 29.56 2.92Q29.61 2.72 29.69 2.52Q29.78 2.32 29.9 2.13Q30.04 1.92 30.23 1.73Q30.42 1.54 30.63 1.4Q30.82 1.28 31.02 1.19Q31.22 1.11 31.42 1.06Q31.7 1 32 1Q32.29 1 32.57 1.06Q32.77 1.11 32.97 1.19Q33.17 1.28 33.36 1.4Q33.57 1.54 33.76 1.73Q33.95 1.92 34.09 2.13Q34.21 2.32 34.3 2.52Q34.38 2.72 34.43 2.92Q34.5 3.2 34.5 3.5Q34.5 3.79 34.43 4.07Q34.38 4.27 34.3 4.47Q34.21 4.67 34.09 4.86Q33.95 5.07 33.76 5.26Q33.57 5.45 33.36 5.59Q33.17 5.71 32.97 5.8Q32.77 5.88 32.57 5.93Z" fill="#000000" fill-opacity="1.000000" fill-rule="evenodd"/>
		<path id="Ellipse" d="M33.5 3.5C33.5 4.32 32.82 5 32 5C31.17 5 30.5 4.32 30.5 3.5C30.5 2.67 31.17 2 32 2C32.82 2 33.5 2.67 33.5 3.5Z" fill="#FFFFFF" fill-opacity="1.000000" fill-rule="nonzero"/>
		<path id="Ellipse" d="M32 5C32.82 5 33.5 4.32 33.5 3.5C33.5 2.67 32.82 2 32 2C31.17 2 30.5 2.67 30.5 3.5C30.5 4.32 31.17 5 32 5ZM32.19 3.96Q32.1 4 32 4Q31.89 4 31.8 3.96Q31.71 3.92 31.64 3.85Q31.57 3.78 31.53 3.69Q31.5 3.6 31.5 3.5Q31.5 3.39 31.53 3.3Q31.57 3.21 31.64 3.14Q31.71 3.07 31.8 3.03Q31.89 3 32 3Q32.1 3 32.19 3.03Q32.28 3.07 32.35 3.14Q32.42 3.21 32.46 3.3Q32.5 3.39 32.5 3.5Q32.5 3.6 32.46 3.69Q32.42 3.78 32.35 3.85Q32.28 3.92 32.19 3.96Z" fill="#000000" fill-opacity="1.000000" fill-rule="evenodd"/>
	</g>
</svg>
