<svg width="32.000000" height="49.000000" viewBox="0 0 32 49" fill="none" xmlns="http://www.w3.org/2000/svg" xmlns:xlink="http://www.w3.org/1999/xlink">
	<desc>
			Created with Pixso.
	</desc>
	<defs/>
	<path id="Vector (Stroke)" d="M16.31 14.5C17 15.43 18.24 16.12 20.29 15.84C23.89 15.36 26.68 16.44 28.35 18.51C29.98 20.53 30.36 23.26 29.66 25.71C28.95 28.18 27.12 30.44 24.25 31.58C21.39 32.71 17.66 32.65 13.21 30.87C9.34 29.31 7.12 29.57 5.92 30.27C4.76 30.95 4.07 32.36 4 34.35C3.93 36.32 4.49 38.57 5.45 40.38C6.45 42.27 7.67 43.32 8.69 43.52L8.1 46.47C5.76 46 3.95 43.96 2.8 41.79C1.62 39.56 0.91 36.79 1 34.24C1.09 31.71 2 29.08 4.41 27.68C6.79 26.29 10.11 26.39 14.33 28.08C18.28 29.67 21.18 29.57 23.15 28.79C25.11 28.01 26.31 26.5 26.77 24.88C27.25 23.23 26.95 21.55 26.02 20.4C25.13 19.3 23.47 18.44 20.69 18.82C17.7 19.22 15.33 18.21 13.9 16.3C12.52 14.45 12.19 11.97 12.73 9.65C13.28 7.31 14.73 5.01 17.12 3.45C19.51 1.89 22.74 1.12 26.74 1.67L26.33 4.64C22.94 4.18 20.46 4.85 18.76 5.96C17.05 7.08 16.03 8.71 15.65 10.33C15.27 11.98 15.56 13.5 16.31 14.5Z" fill="#000000" fill-opacity="1.000000" fill-rule="evenodd"/>
	<path id="Vector (Stroke)" d="M16.31 14.5C15.56 13.5 15.27 11.98 15.65 10.33C16.03 8.71 17.05 7.08 18.76 5.96C20.46 4.85 22.94 4.18 26.33 4.64L26.74 1.67C22.74 1.12 19.51 1.89 17.12 3.45C14.73 5.01 13.28 7.31 12.73 9.65C12.19 11.97 12.52 14.45 13.9 16.3C15.33 18.21 17.7 19.22 20.69 18.82C23.47 18.44 25.13 19.3 26.02 20.4C26.95 21.55 27.25 23.23 26.77 24.88C26.31 26.5 25.11 28.01 23.15 28.79C21.18 29.57 18.28 29.67 14.33 28.08C10.11 26.39 6.79 26.29 4.41 27.68C2 29.08 1.09 31.71 1 34.24C0.91 36.79 1.62 39.56 2.8 41.79C3.95 43.96 5.76 46 8.1 46.47L8.69 43.52C7.67 43.32 6.45 42.27 5.45 40.38C4.49 38.57 3.93 36.32 4 34.35C4.07 32.36 4.76 30.95 5.92 30.27C7.12 29.57 9.34 29.31 13.21 30.87C17.66 32.65 21.39 32.71 24.25 31.58C27.12 30.44 28.95 28.18 29.66 25.71C30.36 23.26 29.98 20.53 28.35 18.51C26.68 16.44 23.89 15.36 20.29 15.84C18.24 16.12 17 15.43 16.31 14.5Z" stroke="#000000" stroke-opacity="1.000000" stroke-width="3.000000"/>
</svg>
