<svg width="44.000000" height="72.000000" viewBox="0 0 44 72" fill="none" xmlns="http://www.w3.org/2000/svg" xmlns:xlink="http://www.w3.org/1999/xlink">
	<desc>
			Created with Pixso.
	</desc>
	<defs/>
	<path id="Vector (Stroke)" d="M21.93 22.17C22.93 23.51 24.7 24.49 27.64 24.09C32.8 23.4 36.8 24.95 39.2 27.92C41.54 30.81 42.07 34.72 41.07 38.23C40.05 41.77 37.43 45.02 33.32 46.65C29.22 48.27 23.88 48.19 17.5 45.63C11.95 43.4 8.77 43.76 7.05 44.76C5.38 45.74 4.4 47.76 4.3 50.61C4.19 53.44 5 56.66 6.38 59.27C7.81 61.96 9.56 63.47 11.02 63.77L10.17 67.98C6.82 67.31 4.23 64.39 2.58 61.28C0.88 58.08 -0.13 54.11 0 50.46C0.13 46.83 1.43 43.07 4.88 41.05C8.29 39.06 13.06 39.21 19.1 41.64C24.76 43.91 28.92 43.76 31.74 42.65C34.55 41.54 36.27 39.37 36.93 37.04C37.61 34.68 37.18 32.27 35.85 30.62C34.58 29.04 32.2 27.82 28.21 28.35C23.93 28.93 20.53 27.49 18.48 24.74C16.51 22.1 16.03 18.54 16.81 15.22C17.59 11.86 19.68 8.57 23.09 6.34C26.53 4.09 31.16 3 36.88 3.79L36.3 8.05C31.44 7.38 27.88 8.34 25.45 9.94C23 11.54 21.53 13.87 20.99 16.2C20.44 18.55 20.87 20.74 21.93 22.17Z" fill="#000000" fill-opacity="1.000000" fill-rule="evenodd"/>
	<path id="Vector (Stroke)" d="M36.55 6.2C35.89 6.11 35.25 6.05 34.63 6.01L34.67 5.44C35.3 5.48 35.96 5.54 36.63 5.63L36.55 6.2ZM30.78 6.12C29.42 6.3 28.19 6.61 27.07 7.04L26.87 6.5C28.03 6.06 29.31 5.73 30.71 5.56L30.78 6.12ZM23.73 8.87C22.67 9.67 21.79 10.59 21.08 11.58L20.61 11.25C21.35 10.21 22.28 9.24 23.38 8.41L23.73 8.87ZM19.39 14.99C19 16.24 18.84 17.52 18.9 18.74L18.33 18.77C18.27 17.48 18.44 16.13 18.84 14.82L19.39 14.99ZM19.85 22.36C20.44 23.47 21.29 24.4 22.4 25.04L22.11 25.54C20.9 24.83 19.98 23.82 19.35 22.63L19.85 22.36ZM27.89 25.94C28.67 25.83 29.42 25.79 30.13 25.79L30.12 26.37C29.45 26.36 28.72 26.41 27.96 26.51C27.26 26.6 26.59 26.63 25.96 26.61L25.98 26.04C26.58 26.06 27.21 26.03 27.89 25.94ZM34.51 26.65C36 27.3 37.17 28.27 38.02 29.44L37.55 29.78C36.77 28.69 35.68 27.78 34.28 27.18L34.51 26.65ZM39.62 33.63C39.79 35.09 39.64 36.62 39.16 38.08L38.62 37.9C39.07 36.52 39.21 35.08 39.05 33.7L39.62 33.63ZM12.45 42.26C10.94 42.05 9.64 42.07 8.51 42.28L8.41 41.72C9.6 41.49 10.97 41.47 12.53 41.7L12.45 42.26ZM36.93 41.96C35.97 43.02 34.77 43.93 33.34 44.61L33.09 44.09C34.46 43.45 35.6 42.58 36.5 41.57L36.93 41.96ZM18.19 43.9C17.54 43.64 16.91 43.4 16.31 43.2L16.49 42.66C17.1 42.86 17.74 43.1 18.4 43.37C19.1 43.65 19.79 43.89 20.45 44.11L20.27 44.66C19.6 44.44 18.9 44.18 18.19 43.9ZM5.06 43.92C4.11 44.77 3.44 45.89 3.01 47.17L2.47 46.99C2.92 45.63 3.64 44.43 4.68 43.5L5.06 43.92ZM29.04 45.78C27.68 45.92 26.19 45.9 24.58 45.67L24.66 45.11C26.23 45.33 27.67 45.35 28.98 45.21L29.04 45.78ZM2.43 51.05C2.42 52.34 2.57 53.67 2.86 54.99L2.3 55.12C2.01 53.76 1.85 52.38 1.85 51.05L2.43 51.05ZM4.08 58.78C4.63 60.04 5.29 61.21 6.04 62.22L5.58 62.56C4.8 61.52 4.11 60.31 3.55 59.01L4.08 58.78ZM8.87 64.89C9.45 65.23 10.04 65.47 10.65 65.59L10.54 66.15C9.86 66.02 9.21 65.75 8.58 65.38L8.87 64.89Z" fill="#FFFFFF" fill-opacity="1.000000" fill-rule="evenodd"/>
	<path id="Ellipse" d="M16.47 66.59C16.47 69.36 14.22 71.61 11.45 71.61C8.68 71.61 6.44 69.36 6.44 66.59C6.44 63.82 8.68 61.57 11.45 61.57C14.22 61.57 16.47 63.82 16.47 66.59Z" fill="#C4C4C4" fill-opacity="1.000000" fill-rule="nonzero"/>
	<path id="Ellipse" d="M13.6 66.59C13.6 67.78 12.64 68.74 11.45 68.74C10.27 68.74 9.3 67.78 9.3 66.59C9.3 65.4 10.27 64.44 11.45 64.44C12.64 64.44 13.6 65.4 13.6 66.59Z" fill="#FFFFFF" fill-opacity="1.000000" fill-rule="nonzero"/>
	<path id="Ellipse" d="M43.7 4.97C43.7 7.74 41.45 9.98 38.68 9.98C35.91 9.98 33.67 7.74 33.67 4.97C33.67 2.2 35.91 -0.05 38.68 -0.05C41.45 -0.05 43.7 2.2 43.7 4.97Z" fill="#C4C4C4" fill-opacity="1.000000" fill-rule="nonzero"/>
	<path id="Ellipse" d="M40.83 4.97C40.83 6.15 39.87 7.12 38.68 7.12C37.5 7.12 36.53 6.15 36.53 4.97C36.53 3.78 37.5 2.82 38.68 2.82C39.87 2.82 40.83 3.78 40.83 4.97Z" fill="#FFFFFF" fill-opacity="1.000000" fill-rule="nonzero"/>
</svg>
