<svg width="62.000000" height="74.000000" viewBox="0 0 62 74" fill="none" xmlns="http://www.w3.org/2000/svg" xmlns:xlink="http://www.w3.org/1999/xlink">
	<desc>
			Created with Pixso.
	</desc>
	<defs/>
	<path id="Vector" d="M61.92 19.05C61.88 17.05 61.84 15.16 61.84 13.34C61.84 11.91 60.69 10.75 59.26 10.75C48.21 10.75 39.8 7.56 32.79 0.73C31.79 -0.25 30.2 -0.25 29.19 0.73C22.18 7.56 13.78 10.75 2.73 10.75C1.31 10.75 0.15 11.91 0.15 13.34C0.15 15.16 0.11 17.05 0.07 19.05C-0.28 37.64 -0.76 63.11 30.15 73.85C30.42 73.95 30.71 74 30.99 74C31.28 74 31.57 73.95 31.84 73.85C62.75 63.11 62.27 37.64 61.92 19.05ZM30.99 68.66C4.48 59 4.88 37.84 5.24 19.15C5.26 18.03 5.28 16.94 5.3 15.87C15.64 15.44 23.91 12.29 30.99 6.11C38.08 12.29 46.35 15.44 56.69 15.87C56.71 16.94 56.73 18.03 56.75 19.15C57.11 37.84 57.51 59 30.99 68.66Z" fill="#FFFFFF" fill-opacity="1.000000" fill-rule="nonzero"/>
	<path id="Vector" d="M39.89 28L27.42 40.5L22.1 35.16C21.09 34.15 19.46 34.15 18.45 35.16C17.44 36.18 17.44 37.82 18.45 38.83L25.6 45.99C26.1 46.5 26.76 46.75 27.42 46.75C28.08 46.75 28.74 46.5 29.25 45.99L43.54 31.66C44.55 30.65 44.55 29.01 43.54 28C42.53 26.99 40.9 26.99 39.89 28Z" fill="#FFFFFF" fill-opacity="1.000000" fill-rule="nonzero"/>
</svg>
