<svg width="31.000000" height="31.000000" viewBox="0 0 31 31" fill="none" xmlns="http://www.w3.org/2000/svg" xmlns:xlink="http://www.w3.org/1999/xlink">
	<desc>
			Created with Pixso.
	</desc>
	<defs/>
	<path id="Vector" d="M15.07 -0.03C6.73 -0.03 -0.11 6.81 -0.11 15.15C-0.11 23.49 6.73 30.33 15.07 30.33C23.41 30.33 30.25 23.49 30.25 15.15C30.25 6.81 23.41 -0.03 15.07 -0.03ZM15.07 26.72C8.69 26.72 3.51 21.53 3.51 15.15C3.51 8.78 8.69 3.59 15.07 3.59C21.45 3.59 26.64 8.78 26.64 15.15C26.64 21.53 21.45 26.72 15.07 26.72Z" fill="#E51937" fill-opacity="1.000000" fill-rule="nonzero"/>
	<path id="Vector" d="M16.85 12.48C16.85 13.47 16.05 14.26 15.07 14.26C14.09 14.26 13.29 13.47 13.29 12.48C13.29 11.5 14.09 10.7 15.07 10.7C16.05 10.7 16.85 11.5 16.85 12.48Z" fill="#E51937" fill-opacity="1.000000" fill-rule="nonzero"/>
	<path id="Vector" d="M15.07 16.04C13.49 16.04 12.17 15.01 11.7 13.58C9.35 13.84 7.15 14.33 5.29 15.05C5.29 15.08 5.28 15.12 5.28 15.15C5.28 16.18 5.45 17.17 5.74 18.1C7.2 17.34 8.62 16.93 9.73 16.93C10.66 16.93 11.37 17.19 11.91 17.73C13.16 18.98 13.3 21.52 13.3 24.77C13.88 24.87 14.47 24.94 15.07 24.94C15.68 24.94 16.27 24.87 16.84 24.77C16.84 21.52 16.98 18.98 18.23 17.73C18.77 17.19 19.48 16.93 20.41 16.93C21.5 16.93 22.93 17.33 24.4 18.1C24.7 17.17 24.86 16.18 24.86 15.15C24.86 15.12 24.85 15.09 24.85 15.05C22.83 14.27 20.6 13.82 18.44 13.58C17.97 15.01 16.65 16.04 15.07 16.04Z" fill="#E51937" fill-opacity="1.000000" fill-rule="nonzero"/>
</svg>
