<svg width="22.000000" height="22.000000" viewBox="0 0 22 22" fill="none" xmlns="http://www.w3.org/2000/svg" xmlns:xlink="http://www.w3.org/1999/xlink">
	<desc>
			Created with Pixso.
	</desc>
	<defs/>
	<path id="Vector" d="M11 0C4.95 0 0 4.95 0 11C0 17.04 4.95 22 11 22C17.04 22 22 17.04 22 11C22 4.95 17.04 0 11 0ZM11 19.37C6.38 19.37 2.62 15.62 2.62 11C2.62 6.38 6.38 2.62 11 2.62C15.62 2.62 19.37 6.38 19.37 11C19.37 15.62 15.62 19.37 11 19.37Z" fill="#000000" fill-opacity="1.000000" fill-rule="nonzero"/>
	<path id="Vector" d="M12.28 9.06C12.28 9.77 11.71 10.35 11 10.35C10.28 10.35 9.71 9.77 9.71 9.06C9.71 8.35 10.28 7.77 11 7.77C11.71 7.77 12.28 8.35 12.28 9.06Z" fill="#000000" fill-opacity="1.000000" fill-rule="nonzero"/>
	<path id="Vector" d="M11 11.64C9.85 11.64 8.89 10.89 8.56 9.86C6.85 10.04 5.26 10.4 3.91 10.92C3.91 10.95 3.91 10.97 3.91 11C3.91 11.74 4.02 12.46 4.24 13.13C5.29 12.58 6.32 12.28 7.13 12.28C7.8 12.28 8.32 12.47 8.71 12.87C9.61 13.77 9.71 15.61 9.71 17.96C10.13 18.04 10.56 18.08 11 18.08C11.43 18.08 11.86 18.04 12.28 17.96C12.28 15.61 12.38 13.77 13.28 12.87C13.67 12.47 14.19 12.28 14.86 12.28C15.66 12.28 16.69 12.57 17.76 13.13C17.97 12.45 18.08 11.74 18.08 11C18.08 10.97 18.08 10.95 18.08 10.92C16.62 10.36 15 10.03 13.43 9.86C13.1 10.89 12.14 11.64 11 11.64Z" fill="#000000" fill-opacity="1.000000" fill-rule="nonzero"/>
</svg>
