<svg width="44.000000" height="34.000000" viewBox="0 0 44 34" fill="none" xmlns="http://www.w3.org/2000/svg" xmlns:xlink="http://www.w3.org/1999/xlink">
	<desc>
			Created with Pixso.
	</desc>
	<defs/>
	<path id="Vector" d="M7.15 15.62C6.23 16.56 6.23 18.08 7.15 19.03C8.07 19.97 9.56 19.97 10.48 19.03C16.83 12.54 27.17 12.54 33.51 19.03C33.97 19.5 34.58 19.74 35.18 19.74C35.78 19.74 36.38 19.5 36.84 19.03C37.76 18.09 37.76 16.57 36.84 15.62C28.66 7.24 15.33 7.24 7.15 15.62Z" fill="#FFFFFF" fill-opacity="1.000000" fill-rule="nonzero"/>
	<path id="Vector" d="M13.52 22.13C12.6 23.06 12.6 24.59 13.52 25.54C14.43 26.48 15.93 26.48 16.85 25.54C19.68 22.63 24.31 22.63 27.14 25.54C27.6 26.01 28.2 26.25 28.8 26.25C29.4 26.25 30.01 26.01 30.47 25.54C31.38 24.6 31.38 23.07 30.47 22.14C25.8 17.35 18.19 17.35 13.52 22.13Z" fill="#FFFFFF" fill-opacity="1.000000" fill-rule="nonzero"/>
	<path id="Vector" d="M25.13 30.79C25.13 32.56 23.73 33.99 22 33.99C20.26 33.99 18.86 32.56 18.86 30.79C18.86 29.01 20.26 27.58 22 27.58C23.73 27.58 25.13 29.01 25.13 30.79Z" fill="#FFFFFF" fill-opacity="1.000000" fill-rule="evenodd"/>
	<path id="Vector" d="M43.31 9C31.55 -3.01 12.44 -3.01 0.68 9C-0.23 9.94 -0.23 11.46 0.68 12.41C1.6 13.35 3.09 13.35 4.02 12.41C13.93 2.27 30.06 2.27 39.98 12.41C40.44 12.88 41.04 13.12 41.64 13.12C42.25 13.12 42.85 12.88 43.31 12.41C44.22 11.47 44.22 9.95 43.31 9Z" fill="#FFFFFF" fill-opacity="1.000000" fill-rule="nonzero"/>
</svg>
